<svg xmlns="http://www.w3.org/2000/svg" xmlns:xlink="http://www.w3.org/1999/xlink" width="2048" zoomAndPan="magnify" viewBox="0 0 1536 1535.999932" height="2048" preserveAspectRatio="xMidYMid meet" version="1.0"><path fill="#168f8c" d="M 920.195312 303.742188 L 919.265625 303.742188 L 919.265625 303.828125 C 919.582031 303.800781 919.84375 303.777344 920.195312 303.742188 Z M 920.195312 303.742188 " fill-opacity="1" fill-rule="nonzero"/><path fill="#0ca49d" d="M 926.25 295.054688 L 926.25 850.347656 L 1056.734375 850.347656 L 1056.734375 434.1875 C 1056.734375 403.101562 1040.15625 309.207031 926.25 295.054688 Z M 926.25 295.054688 " fill-opacity="1" fill-rule="nonzero"/><path fill="#0ca49d" d="M 232.675781 753.710938 C 249.269531 753.710938 262.832031 751.605469 273.371094 747.394531 C 283.898438 743.179688 292.136719 737.726562 298.089844 731.039062 C 304.03125 724.347656 308.113281 716.785156 310.351562 708.367188 C 312.578125 699.945312 313.691406 691.390625 313.691406 682.722656 C 313.691406 672.8125 312.390625 663.890625 309.785156 655.953125 C 307.191406 648.03125 302.726562 641.335938 296.40625 635.878906 C 290.097656 630.433594 281.730469 626.214844 271.324219 623.242188 C 260.917969 620.273438 247.785156 618.78125 231.925781 618.78125 L 144.234375 618.78125 L 144.234375 753.710938 Z M 144.234375 400.960938 L 144.234375 534.78125 L 209.640625 534.78125 C 223.503906 534.78125 236.023438 533.789062 247.175781 531.804688 C 258.3125 529.820312 267.796875 526.355469 275.597656 521.394531 C 283.398438 516.4375 289.351562 509.628906 293.4375 500.953125 C 297.519531 492.28125 299.570312 481.378906 299.570312 468.242188 C 299.570312 455.359375 297.953125 444.636719 294.738281 436.089844 C 291.511719 427.539062 286.554688 420.664062 279.871094 415.460938 C 273.183594 410.257812 264.691406 406.539062 254.417969 404.308594 C 244.136719 402.074219 231.925781 400.960938 217.816406 400.960938 Z M 217.816406 306.917969 C 255.222656 306.917969 287.058594 310.390625 313.320312 317.328125 C 339.574219 324.269531 361.007812 334.054688 377.609375 346.695312 C 394.203125 359.332031 406.277344 374.699219 413.84375 392.785156 C 421.390625 410.871094 425.171875 431.070312 425.171875 453.375 C 425.171875 465.515625 423.441406 477.226562 419.980469 488.5 C 416.507812 499.78125 411.050781 510.3125 403.617188 520.09375 C 396.1875 529.886719 386.648438 538.863281 375.003906 547.046875 C 363.355469 555.222656 349.367188 562.285156 333.019531 568.230469 C 368.6875 576.902344 395.074219 590.902344 412.164062 610.230469 C 429.257812 629.5625 437.816406 654.59375 437.816406 685.316406 C 437.816406 708.367188 433.355469 729.804688 424.429688 749.625 C 415.511719 769.453125 402.4375 786.734375 385.222656 801.476562 C 368.007812 816.222656 346.761719 827.742188 321.488281 836.046875 C 296.226562 844.351562 267.363281 848.496094 234.914062 848.496094 L 18.628906 848.496094 L 18.628906 306.917969 Z M 217.816406 306.917969 " fill-opacity="1" fill-rule="nonzero"/><path fill="#0ca49d" d="M 815.371094 416.945312 C 811.652344 422.894531 807.761719 427.351562 803.664062 430.324219 C 799.582031 433.300781 794.316406 434.785156 787.871094 434.785156 C 782.175781 434.785156 776.042969 432.988281 769.480469 429.394531 C 762.914062 425.808594 755.480469 421.773438 747.191406 417.316406 C 738.886719 412.855469 729.40625 408.828125 718.753906 405.234375 C 708.105469 401.640625 695.960938 399.847656 682.332031 399.847656 C 658.796875 399.847656 641.265625 404.863281 629.75 414.902344 C 618.234375 424.933594 612.464844 438.507812 612.464844 455.601562 C 612.464844 466.507812 615.941406 475.554688 622.875 482.734375 C 629.804688 489.925781 638.917969 496.121094 650.195312 501.324219 C 661.464844 506.527344 674.355469 511.304688 688.84375 515.632812 C 703.332031 519.972656 718.132812 524.804688 733.242188 530.128906 C 748.359375 535.464844 763.167969 541.722656 777.65625 548.894531 C 792.148438 556.089844 805.035156 565.253906 816.308594 576.414062 C 827.578125 587.554688 836.683594 601.125 843.617188 617.109375 C 850.550781 633.09375 854.023438 652.359375 854.023438 674.90625 C 854.023438 699.941406 849.695312 723.363281 841.023438 745.160156 C 832.34375 766.972656 819.769531 785.996094 803.300781 802.21875 C 786.816406 818.453125 766.507812 831.207031 742.359375 840.503906 C 718.199219 849.796875 690.757812 854.441406 660.042969 854.441406 C 643.195312 854.441406 626.03125 852.710938 608.574219 849.242188 C 591.101562 845.777344 574.199219 840.875 557.847656 834.554688 C 541.492188 828.238281 526.132812 820.746094 511.765625 812.074219 C 497.386719 803.398438 484.878906 793.730469 474.230469 783.074219 L 511.386719 724.347656 C 514.371094 720.132812 518.261719 716.605469 523.09375 713.753906 C 527.921875 710.902344 533.1875 709.484375 538.898438 709.484375 C 546.320312 709.484375 553.804688 711.832031 561.375 716.542969 C 568.933594 721.25 577.480469 726.453125 587.019531 732.15625 C 596.554688 737.851562 607.515625 743.0625 619.902344 747.761719 C 632.289062 752.472656 646.910156 754.828125 663.761719 754.828125 C 686.546875 754.828125 704.265625 749.808594 716.898438 739.773438 C 729.527344 729.734375 735.847656 713.816406 735.847656 692.007812 C 735.847656 679.371094 732.375 669.085938 725.445312 661.15625 C 718.511719 653.226562 709.394531 646.664062 698.136719 641.453125 C 686.847656 636.25 674.03125 631.667969 659.664062 627.699219 C 645.296875 623.746094 630.550781 619.339844 615.449219 614.507812 C 600.328125 609.671875 585.589844 603.730469 571.222656 596.667969 C 556.847656 589.605469 544.027344 580.3125 532.765625 568.789062 C 521.484375 557.265625 512.375 542.898438 505.445312 525.667969 C 498.511719 508.449219 495.039062 487.199219 495.039062 461.917969 C 495.039062 441.605469 499.121094 421.773438 507.304688 402.449219 C 515.484375 383.117188 527.492188 365.894531 543.347656 350.78125 C 559.207031 335.671875 578.660156 323.589844 601.691406 314.539062 C 624.730469 305.496094 651.117188 300.96875 680.851562 300.96875 C 697.445312 300.96875 713.613281 302.269531 729.351562 304.875 C 745.074219 307.476562 760.007812 311.324219 774.128906 316.398438 C 788.253906 321.480469 801.4375 327.546875 813.703125 334.613281 C 825.96875 341.675781 836.925781 349.664062 846.585938 358.585938 Z M 815.371094 416.945312 " fill-opacity="1" fill-rule="nonzero"/><path fill="#f9ad3c" d="M 1071.035156 94.914062 C 1070.75 90.378906 1070.230469 85.910156 1069.546875 81.496094 C 1098.742188 111.640625 1140.433594 129.3125 1185.59375 126.457031 C 1207.1875 125.089844 1227.382812 119.132812 1245.363281 109.660156 C 1231.398438 134.03125 1224.15625 162.617188 1226.0625 192.746094 C 1228.417969 230.046875 1244.378906 263.21875 1268.757812 287.835938 C 1256.285156 285.320312 1243.296875 284.359375 1229.996094 285.199219 C 1177.167969 288.546875 1132.578125 319.144531 1108.96875 362.425781 C 1099.640625 298.449219 1050.027344 248.710938 987.996094 237.765625 C 1040.40625 212.140625 1074.945312 156.765625 1071.035156 94.914062 Z M 1071.035156 94.914062 " fill-opacity="1" fill-rule="nonzero"/><path fill="#0ca49d" d="M 74.695312 1168.980469 C 80.683594 1168.980469 85.84375 1168.292969 90.167969 1166.925781 C 94.496094 1165.554688 98.035156 1163.644531 100.777344 1161.191406 C 103.589844 1158.667969 105.640625 1155.710938 106.941406 1152.320312 C 108.238281 1148.859375 108.890625 1145.070312 108.890625 1140.960938 C 108.890625 1132.953125 106.039062 1126.644531 100.339844 1122.027344 C 94.644531 1117.34375 86.09375 1114.996094 74.695312 1114.996094 L 41.15625 1114.996094 L 41.15625 1168.980469 Z M 41.15625 1047.167969 L 41.15625 1100.066406 L 68.855469 1100.066406 C 74.769531 1100.066406 79.890625 1099.417969 84.21875 1098.121094 C 88.617188 1096.820312 92.226562 1095.019531 95.039062 1092.710938 C 97.925781 1090.402344 100.050781 1087.628906 101.421875 1084.378906 C 102.792969 1081.066406 103.480469 1077.457031 103.480469 1073.5625 C 103.480469 1064.402344 100.738281 1057.730469 95.253906 1053.546875 C 89.773438 1049.292969 81.261719 1047.167969 69.71875 1047.167969 Z M 69.71875 1030.613281 C 79.242188 1030.613281 87.429688 1031.550781 94.28125 1033.425781 C 101.207031 1035.300781 106.871094 1037.96875 111.269531 1041.433594 C 115.742188 1044.894531 119.023438 1049.148438 121.117188 1054.199219 C 123.207031 1059.171875 124.253906 1064.800781 124.253906 1071.074219 C 124.253906 1074.894531 123.636719 1078.578125 122.414062 1082.105469 C 121.257812 1085.570312 119.492188 1088.816406 117.113281 1091.84375 C 114.730469 1094.871094 111.703125 1097.613281 108.019531 1100.066406 C 104.414062 1102.445312 100.160156 1104.394531 95.253906 1105.910156 C 106.65625 1108.074219 115.199219 1112.148438 120.898438 1118.136719 C 126.667969 1124.046875 129.554688 1131.835938 129.554688 1141.503906 C 129.554688 1148.066406 128.328125 1154.054688 125.875 1159.460938 C 123.492188 1164.871094 119.960938 1169.523438 115.269531 1173.414062 C 110.65625 1177.3125 104.960938 1180.339844 98.179688 1182.503906 C 91.398438 1184.59375 83.679688 1185.640625 75.019531 1185.640625 L 20.273438 1185.640625 L 20.273438 1030.613281 Z M 69.71875 1030.613281 " fill-opacity="1" fill-rule="nonzero"/><path fill="#0ca49d" d="M 240.398438 1128.085938 L 216.050781 1065.015625 C 215.332031 1063.140625 214.574219 1060.980469 213.777344 1058.523438 C 212.984375 1056.003906 212.230469 1053.332031 211.507812 1050.519531 C 209.992188 1056.359375 208.445312 1061.226562 206.855469 1065.125 L 182.511719 1128.085938 Z M 284.109375 1185.640625 L 267.882812 1185.640625 C 266.003906 1185.640625 264.492188 1185.171875 263.335938 1184.234375 C 262.179688 1183.296875 261.316406 1182.105469 260.738281 1180.664062 L 246.238281 1143.230469 L 176.667969 1143.230469 L 162.167969 1180.664062 C 161.738281 1181.960938 160.90625 1183.117188 159.679688 1184.125 C 158.453125 1185.132812 156.9375 1185.640625 155.136719 1185.640625 L 138.90625 1185.640625 L 200.902344 1030.613281 L 222.113281 1030.613281 Z M 284.109375 1185.640625 " fill-opacity="1" fill-rule="nonzero"/><path fill="#0ca49d" d="M 430.125 1030.613281 L 430.125 1185.640625 L 419.628906 1185.640625 C 417.96875 1185.640625 416.566406 1185.351562 415.410156 1184.777344 C 414.328125 1184.199219 413.246094 1183.222656 412.164062 1181.851562 L 322.464844 1065.015625 C 322.609375 1066.820312 322.71875 1068.585938 322.792969 1070.316406 C 322.863281 1072.050781 322.902344 1073.671875 322.902344 1075.1875 L 322.902344 1185.640625 L 304.503906 1185.640625 L 304.503906 1030.613281 L 315.328125 1030.613281 C 316.261719 1030.613281 317.054688 1030.6875 317.707031 1030.828125 C 318.355469 1030.902344 318.933594 1031.082031 319.4375 1031.371094 C 319.941406 1031.589844 320.445312 1031.949219 320.953125 1032.453125 C 321.457031 1032.882812 322 1033.460938 322.578125 1034.183594 L 412.273438 1150.914062 C 412.128906 1149.039062 411.980469 1147.234375 411.839844 1145.503906 C 411.765625 1143.699219 411.734375 1142.007812 411.734375 1140.417969 L 411.734375 1030.613281 Z M 430.125 1030.613281 " fill-opacity="1" fill-rule="nonzero"/><path fill="#0ca49d" d="M 490.648438 1098.554688 L 498.542969 1098.554688 C 501.28125 1098.554688 503.484375 1098.230469 505.140625 1097.582031 C 506.804688 1096.859375 508.316406 1095.667969 509.6875 1094.007812 L 561.296875 1035.589844 C 562.742188 1033.714844 564.253906 1032.414062 565.84375 1031.695312 C 567.429688 1030.972656 569.378906 1030.613281 571.683594 1030.613281 L 589.429688 1030.613281 L 530.351562 1097.359375 C 528.910156 1099.09375 527.503906 1100.535156 526.136719 1101.691406 C 524.835938 1102.773438 523.425781 1103.675781 521.914062 1104.394531 C 523.863281 1105.042969 525.628906 1106.019531 527.214844 1107.316406 C 528.804688 1108.539062 530.351562 1110.164062 531.871094 1112.183594 L 593.542969 1185.640625 L 575.363281 1185.640625 C 573.992188 1185.640625 572.804688 1185.570312 571.792969 1185.425781 C 570.855469 1185.210938 570.027344 1184.917969 569.304688 1184.5625 C 568.585938 1184.125 567.9375 1183.65625 567.359375 1183.152344 C 566.851562 1182.574219 566.347656 1181.929688 565.84375 1181.203125 L 512.390625 1119.648438 C 510.949219 1117.84375 509.402344 1116.582031 507.738281 1115.863281 C 506.082031 1115.070312 503.554688 1114.671875 500.164062 1114.671875 L 490.648438 1114.671875 L 490.648438 1185.640625 L 469.761719 1185.640625 L 469.761719 1030.613281 L 490.648438 1030.613281 Z M 490.648438 1098.554688 " fill-opacity="1" fill-rule="nonzero"/><path fill="#0ca49d" d="M 747.71875 1054.847656 C 747.070312 1055.925781 746.347656 1056.757812 745.554688 1057.335938 C 744.835938 1057.839844 743.933594 1058.09375 742.847656 1058.09375 C 741.621094 1058.09375 740.179688 1057.476562 738.519531 1056.25 C 736.863281 1055.027344 734.773438 1053.691406 732.246094 1052.25 C 729.792969 1050.734375 726.800781 1049.363281 723.261719 1048.136719 C 719.800781 1046.914062 715.582031 1046.296875 710.605469 1046.296875 C 705.917969 1046.296875 701.769531 1046.949219 698.164062 1048.246094 C 694.628906 1049.472656 691.632812 1051.167969 689.183594 1053.332031 C 686.800781 1055.496094 685 1058.054688 683.773438 1061.011719 C 682.546875 1063.898438 681.933594 1067.035156 681.933594 1070.425781 C 681.933594 1074.753906 682.980469 1078.359375 685.070312 1081.242188 C 687.234375 1084.054688 690.046875 1086.472656 693.511719 1088.492188 C 697.042969 1090.511719 701.011719 1092.277344 705.410156 1093.792969 C 709.886719 1095.234375 714.429688 1096.75 719.046875 1098.335938 C 723.734375 1099.925781 728.277344 1101.726562 732.679688 1103.746094 C 737.152344 1105.695312 741.117188 1108.183594 744.582031 1111.210938 C 748.117188 1114.238281 750.929688 1117.953125 753.019531 1122.351562 C 755.183594 1126.753906 756.265625 1132.160156 756.265625 1138.582031 C 756.265625 1145.363281 755.113281 1151.742188 752.804688 1157.730469 C 750.492188 1163.644531 747.101562 1168.800781 742.632812 1173.199219 C 738.234375 1177.597656 732.785156 1181.058594 726.296875 1183.585938 C 719.875 1186.109375 712.550781 1187.375 704.332031 1187.375 C 694.230469 1187.375 685.070312 1185.570312 676.847656 1181.960938 C 668.625 1178.285156 661.589844 1173.34375 655.75 1167.144531 L 661.808594 1157.191406 C 662.382812 1156.394531 663.070312 1155.75 663.863281 1155.242188 C 664.726562 1154.664062 665.667969 1154.378906 666.675781 1154.378906 C 667.617188 1154.378906 668.664062 1154.773438 669.8125 1155.566406 C 671.042969 1156.289062 672.410156 1157.222656 673.925781 1158.378906 C 675.441406 1159.53125 677.171875 1160.796875 679.121094 1162.167969 C 681.070312 1163.539062 683.265625 1164.796875 685.722656 1165.949219 C 688.242188 1167.105469 691.09375 1168.078125 694.269531 1168.871094 C 697.441406 1169.59375 701.011719 1169.957031 704.980469 1169.957031 C 709.957031 1169.957031 714.394531 1169.269531 718.285156 1167.898438 C 722.183594 1166.527344 725.464844 1164.617188 728.132812 1162.167969 C 730.875 1159.640625 732.96875 1156.648438 734.410156 1153.183594 C 735.851562 1149.722656 736.574219 1145.867188 736.574219 1141.613281 C 736.574219 1136.921875 735.492188 1133.101562 733.324219 1130.140625 C 731.234375 1127.113281 728.457031 1124.585938 724.996094 1122.570312 C 721.535156 1120.550781 717.566406 1118.855469 713.09375 1117.484375 C 708.621094 1116.042969 704.078125 1114.601562 699.460938 1113.160156 C 694.84375 1111.644531 690.300781 1109.910156 685.828125 1107.96875 C 681.355469 1106.019531 677.386719 1103.492188 673.925781 1100.394531 C 670.464844 1097.289062 667.652344 1093.429688 665.488281 1088.816406 C 663.394531 1084.128906 662.347656 1078.359375 662.347656 1071.503906 C 662.347656 1066.027344 663.394531 1060.726562 665.488281 1055.605469 C 667.652344 1050.480469 670.753906 1045.941406 674.789062 1041.972656 C 678.902344 1038.007812 683.917969 1034.832031 689.832031 1032.453125 C 695.816406 1030.070312 702.671875 1028.882812 710.386719 1028.882812 C 719.046875 1028.882812 726.90625 1030.253906 733.976562 1032.992188 C 741.117188 1035.734375 747.394531 1039.703125 752.804688 1044.894531 Z M 747.71875 1054.847656 " fill-opacity="1" fill-rule="nonzero"/><path fill="#0ca49d" d="M 840.945312 1123.867188 L 840.945312 1185.640625 L 819.957031 1185.640625 L 819.957031 1123.867188 L 763.152344 1030.613281 L 781.546875 1030.613281 C 783.417969 1030.613281 784.898438 1031.082031 785.984375 1032.019531 C 787.0625 1032.882812 788 1034.039062 788.796875 1035.480469 L 824.285156 1095.742188 C 825.582031 1098.261719 826.773438 1100.644531 827.851562 1102.882812 C 828.9375 1105.042969 829.871094 1107.246094 830.667969 1109.480469 C 831.460938 1107.246094 832.359375 1105.042969 833.371094 1102.882812 C 834.378906 1100.644531 835.503906 1098.261719 836.726562 1095.742188 L 872.109375 1035.480469 C 872.757812 1034.253906 873.660156 1033.136719 874.8125 1032.128906 C 875.964844 1031.117188 877.445312 1030.613281 879.246094 1030.613281 L 897.75 1030.613281 Z M 840.945312 1123.867188 " fill-opacity="1" fill-rule="nonzero"/><path fill="#0ca49d" d="M 984.894531 1128.085938 L 960.550781 1065.015625 C 959.832031 1063.140625 959.070312 1060.980469 958.277344 1058.523438 C 957.484375 1056.003906 956.726562 1053.332031 956.007812 1050.519531 C 954.492188 1056.359375 952.941406 1061.226562 951.355469 1065.125 L 927.007812 1128.085938 Z M 1028.609375 1185.640625 L 1012.378906 1185.640625 C 1010.5 1185.640625 1008.988281 1185.171875 1007.835938 1184.234375 C 1006.679688 1183.296875 1005.816406 1182.105469 1005.238281 1180.664062 L 990.738281 1143.230469 L 921.167969 1143.230469 L 906.667969 1180.664062 C 906.234375 1181.960938 905.40625 1183.117188 904.179688 1184.125 C 902.953125 1185.132812 901.4375 1185.640625 899.632812 1185.640625 L 883.40625 1185.640625 L 945.402344 1030.613281 L 966.613281 1030.613281 Z M 1028.609375 1185.640625 " fill-opacity="1" fill-rule="nonzero"/><path fill="#0ca49d" d="M 1091.957031 1105.695312 C 1098.019531 1105.695312 1103.359375 1104.972656 1107.976562 1103.53125 C 1112.660156 1102.015625 1116.558594 1099.925781 1119.65625 1097.253906 C 1122.832031 1094.515625 1125.210938 1091.265625 1126.800781 1087.519531 C 1128.386719 1083.769531 1129.179688 1079.617188 1129.179688 1075.078125 C 1129.179688 1065.84375 1126.152344 1058.886719 1120.089844 1054.199219 C 1114.03125 1049.507812 1104.945312 1047.167969 1092.828125 1047.167969 L 1069.886719 1047.167969 L 1069.886719 1105.695312 Z M 1163.589844 1185.640625 L 1144.976562 1185.640625 C 1141.152344 1185.640625 1138.339844 1184.164062 1136.539062 1181.203125 L 1096.289062 1125.816406 C 1095.0625 1124.085938 1093.726562 1122.859375 1092.285156 1122.136719 C 1090.914062 1121.34375 1088.75 1120.949219 1085.792969 1120.949219 L 1069.886719 1120.949219 L 1069.886719 1185.640625 L 1049.007812 1185.640625 L 1049.007812 1030.613281 L 1092.828125 1030.613281 C 1102.636719 1030.613281 1111.113281 1031.621094 1118.253906 1033.644531 C 1125.394531 1035.589844 1131.273438 1038.4375 1135.890625 1042.191406 C 1140.578125 1045.941406 1144.042969 1050.480469 1146.277344 1055.820312 C 1148.511719 1061.085938 1149.628906 1067 1149.628906 1073.5625 C 1149.628906 1079.046875 1148.765625 1084.164062 1147.03125 1088.925781 C 1145.300781 1093.683594 1142.777344 1097.976562 1139.457031 1101.796875 C 1136.214844 1105.550781 1132.207031 1108.761719 1127.449219 1111.425781 C 1122.761719 1114.09375 1117.421875 1116.113281 1111.433594 1117.484375 C 1114.101562 1119 1116.414062 1121.199219 1118.363281 1124.085938 Z M 1163.589844 1185.640625 " fill-opacity="1" fill-rule="nonzero"/><path fill="#0ca49d" d="M 1184.675781 1030.613281 L 1205.667969 1030.613281 L 1205.667969 1185.640625 L 1184.675781 1185.640625 Z M 1184.675781 1030.613281 " fill-opacity="1" fill-rule="nonzero"/><path fill="#0ca49d" d="M 1327.664062 1128.085938 L 1303.320312 1065.015625 C 1302.601562 1063.140625 1301.839844 1060.980469 1301.046875 1058.523438 C 1300.253906 1056.003906 1299.496094 1053.332031 1298.777344 1050.519531 C 1297.261719 1056.359375 1295.710938 1061.226562 1294.125 1065.125 L 1269.777344 1128.085938 Z M 1371.378906 1185.640625 L 1355.148438 1185.640625 C 1353.269531 1185.640625 1351.757812 1185.171875 1350.605469 1184.234375 C 1349.449219 1183.296875 1348.585938 1182.105469 1348.007812 1180.664062 L 1333.507812 1143.230469 L 1263.9375 1143.230469 L 1249.4375 1180.664062 C 1249.003906 1181.960938 1248.175781 1183.117188 1246.949219 1184.125 C 1245.722656 1185.132812 1244.207031 1185.640625 1242.402344 1185.640625 L 1226.175781 1185.640625 L 1288.171875 1030.613281 L 1309.382812 1030.613281 Z M 1371.378906 1185.640625 " fill-opacity="1" fill-rule="nonzero"/><path fill="#0ca49d" d="M 1517.394531 1030.613281 L 1517.394531 1185.640625 L 1496.40625 1185.640625 L 1496.40625 1115.105469 L 1412.765625 1115.105469 L 1412.765625 1185.640625 L 1391.777344 1185.640625 L 1391.777344 1030.613281 L 1412.765625 1030.613281 L 1412.765625 1099.742188 L 1496.40625 1099.742188 L 1496.40625 1030.613281 Z M 1517.394531 1030.613281 " fill-opacity="1" fill-rule="nonzero"/><path fill="#0ca49d" d="M 20.273438 1234.9375 L 41.265625 1234.9375 L 41.265625 1389.96875 L 20.273438 1389.96875 Z M 20.273438 1234.9375 " fill-opacity="1" fill-rule="nonzero"/><path fill="#0ca49d" d="M 206.542969 1234.9375 L 206.542969 1389.96875 L 196.046875 1389.96875 C 194.390625 1389.96875 192.980469 1389.675781 191.828125 1389.101562 C 190.746094 1388.523438 189.664062 1387.550781 188.582031 1386.179688 L 98.886719 1269.339844 C 99.03125 1271.140625 99.136719 1272.914062 99.210938 1274.640625 C 99.28125 1276.371094 99.316406 1277.996094 99.316406 1279.507812 L 99.316406 1389.96875 L 80.925781 1389.96875 L 80.925781 1234.9375 L 91.742188 1234.9375 C 92.683594 1234.9375 93.476562 1235.007812 94.125 1235.15625 C 94.773438 1235.226562 95.347656 1235.410156 95.855469 1235.695312 C 96.359375 1235.910156 96.867188 1236.273438 97.367188 1236.777344 C 97.875 1237.210938 98.414062 1237.789062 98.992188 1238.507812 L 188.6875 1355.238281 C 188.546875 1353.367188 188.402344 1351.558594 188.257812 1349.832031 C 188.1875 1348.027344 188.148438 1346.332031 188.148438 1344.746094 L 188.148438 1234.9375 Z M 206.542969 1234.9375 " fill-opacity="1" fill-rule="nonzero"/><path fill="#0ca49d" d="M 380.5625 1312.503906 C 380.5625 1324.117188 378.722656 1334.683594 375.046875 1344.207031 C 371.367188 1353.722656 366.171875 1361.875 359.460938 1368.652344 C 352.757812 1375.433594 344.675781 1380.699219 335.226562 1384.449219 C 325.851562 1388.128906 315.464844 1389.96875 304.066406 1389.96875 L 246.179688 1389.96875 L 246.179688 1234.9375 L 304.066406 1234.9375 C 315.464844 1234.9375 325.851562 1236.8125 335.226562 1240.5625 C 344.675781 1244.246094 352.757812 1249.507812 359.460938 1256.359375 C 366.171875 1263.136719 371.367188 1271.289062 375.046875 1280.808594 C 378.722656 1290.332031 380.5625 1300.894531 380.5625 1312.503906 Z M 359.03125 1312.503906 C 359.03125 1302.984375 357.734375 1294.476562 355.136719 1286.972656 C 352.539062 1279.476562 348.859375 1273.128906 344.097656 1267.933594 C 339.339844 1262.742188 333.570312 1258.777344 326.789062 1256.035156 C 320.011719 1253.292969 312.4375 1251.925781 304.066406 1251.925781 L 267.171875 1251.925781 L 267.171875 1372.980469 L 304.066406 1372.980469 C 312.4375 1372.980469 320.011719 1371.609375 326.789062 1368.871094 C 333.570312 1366.132812 339.339844 1362.199219 344.097656 1357.078125 C 348.859375 1351.886719 352.539062 1345.539062 355.136719 1338.035156 C 357.734375 1330.539062 359.03125 1322.027344 359.03125 1312.503906 Z M 359.03125 1312.503906 " fill-opacity="1" fill-rule="nonzero"/><path fill="#0ca49d" d="M 554.058594 1312.503906 C 554.058594 1324.117188 552.21875 1334.792969 548.539062 1344.53125 C 544.859375 1354.191406 539.667969 1362.523438 532.957031 1369.523438 C 526.253906 1376.515625 518.171875 1381.960938 508.722656 1385.855469 C 499.347656 1389.675781 488.960938 1391.589844 477.558594 1391.589844 C 466.164062 1391.589844 455.777344 1389.675781 446.398438 1385.855469 C 437.023438 1381.960938 428.980469 1376.515625 422.273438 1369.523438 C 415.5625 1362.523438 410.371094 1354.191406 406.691406 1344.53125 C 403.011719 1334.792969 401.171875 1324.117188 401.171875 1312.503906 C 401.171875 1300.894531 403.011719 1290.257812 406.691406 1280.59375 C 410.371094 1270.855469 415.5625 1262.488281 422.273438 1255.492188 C 428.980469 1248.425781 437.023438 1242.945312 446.398438 1239.050781 C 455.777344 1235.15625 466.164062 1233.207031 477.558594 1233.207031 C 488.960938 1233.207031 499.347656 1235.15625 508.722656 1239.050781 C 518.171875 1242.945312 526.253906 1248.425781 532.957031 1255.492188 C 539.667969 1262.488281 544.859375 1270.855469 548.539062 1280.59375 C 552.21875 1290.257812 554.058594 1300.894531 554.058594 1312.503906 Z M 532.527344 1312.503906 C 532.527344 1302.984375 531.230469 1294.4375 528.632812 1286.867188 C 526.035156 1279.292969 522.355469 1272.914062 517.59375 1267.71875 C 512.832031 1262.453125 507.0625 1258.414062 500.28125 1255.601562 C 493.5 1252.789062 485.925781 1251.382812 477.558594 1251.382812 C 469.265625 1251.382812 461.730469 1252.789062 454.949219 1255.601562 C 448.167969 1258.414062 442.359375 1262.453125 437.527344 1267.71875 C 432.769531 1272.914062 429.085938 1279.292969 426.488281 1286.867188 C 423.894531 1294.4375 422.597656 1302.984375 422.597656 1312.503906 C 422.597656 1322.027344 423.894531 1330.570312 426.488281 1338.144531 C 429.085938 1345.648438 432.769531 1352.027344 437.527344 1357.296875 C 442.359375 1362.488281 448.167969 1366.488281 454.949219 1369.300781 C 461.730469 1372.042969 469.265625 1373.414062 477.558594 1373.414062 C 485.925781 1373.414062 493.5 1372.042969 500.28125 1369.300781 C 507.0625 1366.488281 512.832031 1362.488281 517.59375 1357.296875 C 522.355469 1352.027344 526.035156 1345.648438 528.632812 1338.144531 C 531.230469 1330.570312 532.527344 1322.027344 532.527344 1312.503906 Z M 532.527344 1312.503906 " fill-opacity="1" fill-rule="nonzero"/><path fill="#0ca49d" d="M 709.707031 1234.9375 L 709.707031 1389.96875 L 699.210938 1389.96875 C 697.554688 1389.96875 696.144531 1389.675781 694.996094 1389.101562 C 693.910156 1388.523438 692.832031 1387.550781 691.746094 1386.179688 L 602.050781 1269.339844 C 602.195312 1271.140625 602.304688 1272.914062 602.375 1274.640625 C 602.449219 1276.371094 602.484375 1277.996094 602.484375 1279.507812 L 602.484375 1389.96875 L 584.089844 1389.96875 L 584.089844 1234.9375 L 594.910156 1234.9375 C 595.847656 1234.9375 596.640625 1235.007812 597.289062 1235.15625 C 597.9375 1235.226562 598.515625 1235.410156 599.023438 1235.695312 C 599.523438 1235.910156 600.03125 1236.273438 600.535156 1236.777344 C 601.039062 1237.210938 601.582031 1237.789062 602.160156 1238.507812 L 691.855469 1355.238281 C 691.710938 1353.367188 691.566406 1351.558594 691.421875 1349.832031 C 691.351562 1348.027344 691.3125 1346.332031 691.3125 1344.746094 L 691.3125 1234.9375 Z M 709.707031 1234.9375 " fill-opacity="1" fill-rule="nonzero"/><path fill="#0ca49d" d="M 844.996094 1372.875 L 844.882812 1389.96875 L 749.347656 1389.96875 L 749.347656 1234.9375 L 844.882812 1234.9375 L 844.882812 1252.035156 L 770.335938 1252.035156 L 770.335938 1303.527344 L 830.710938 1303.527344 L 830.710938 1319.96875 L 770.335938 1319.96875 L 770.335938 1372.875 Z M 844.996094 1372.875 " fill-opacity="1" fill-rule="nonzero"/><path fill="#0ca49d" d="M 953.550781 1259.171875 C 952.902344 1260.253906 952.179688 1261.082031 951.382812 1261.660156 C 950.660156 1262.164062 949.761719 1262.417969 948.679688 1262.417969 C 947.453125 1262.417969 946.011719 1261.804688 944.351562 1260.578125 C 942.691406 1259.351562 940.597656 1258.019531 938.078125 1256.574219 C 935.625 1255.0625 932.628906 1253.691406 929.09375 1252.464844 C 925.632812 1251.238281 921.414062 1250.625 916.433594 1250.625 C 911.75 1250.625 907.601562 1251.273438 903.992188 1252.574219 C 900.460938 1253.800781 897.464844 1255.492188 895.015625 1257.65625 C 892.632812 1259.824219 890.828125 1262.382812 889.605469 1265.339844 C 888.378906 1268.222656 887.765625 1271.359375 887.765625 1274.75 C 887.765625 1279.078125 888.8125 1282.683594 890.902344 1285.570312 C 893.066406 1288.382812 895.878906 1290.796875 899.34375 1292.820312 C 902.875 1294.839844 906.84375 1296.601562 911.242188 1298.121094 C 915.714844 1299.5625 920.257812 1301.074219 924.878906 1302.660156 C 929.5625 1304.246094 934.109375 1306.050781 938.507812 1308.070312 C 942.980469 1310.015625 946.949219 1312.503906 950.414062 1315.535156 C 953.945312 1318.566406 956.761719 1322.28125 958.851562 1326.679688 C 961.015625 1331.078125 962.09375 1336.488281 962.09375 1342.90625 C 962.09375 1349.683594 960.941406 1356.070312 958.632812 1362.054688 C 956.324219 1367.96875 952.933594 1373.128906 948.464844 1377.527344 C 944.0625 1381.925781 938.617188 1385.386719 932.125 1387.910156 C 925.703125 1390.433594 918.382812 1391.695312 910.160156 1391.695312 C 900.0625 1391.695312 890.902344 1389.894531 882.679688 1386.289062 C 874.457031 1382.609375 867.421875 1377.667969 861.582031 1371.464844 L 867.636719 1361.511719 C 868.214844 1360.71875 868.902344 1360.070312 869.695312 1359.566406 C 870.558594 1358.992188 871.5 1358.699219 872.507812 1358.699219 C 873.445312 1358.699219 874.488281 1359.097656 875.644531 1359.890625 C 876.871094 1360.609375 878.242188 1361.550781 879.757812 1362.703125 C 881.269531 1363.859375 883.003906 1365.117188 884.949219 1366.488281 C 886.898438 1367.859375 889.097656 1369.121094 891.554688 1370.277344 C 894.074219 1371.433594 896.925781 1372.40625 900.097656 1373.199219 C 903.273438 1373.921875 906.84375 1374.277344 910.808594 1374.277344 C 915.789062 1374.277344 920.222656 1373.59375 924.117188 1372.226562 C 928.015625 1370.855469 931.296875 1368.945312 933.964844 1366.488281 C 936.707031 1363.96875 938.796875 1360.972656 940.242188 1357.511719 C 941.683594 1354.046875 942.40625 1350.191406 942.40625 1345.933594 C 942.40625 1341.25 941.320312 1337.425781 939.15625 1334.46875 C 937.066406 1331.441406 934.289062 1328.914062 930.828125 1326.894531 C 927.367188 1324.875 923.398438 1323.183594 918.925781 1321.8125 C 914.453125 1320.371094 909.910156 1318.921875 905.292969 1317.480469 C 900.675781 1315.96875 896.132812 1314.238281 891.660156 1312.289062 C 887.1875 1310.339844 883.21875 1307.820312 879.757812 1304.714844 C 876.296875 1301.617188 873.480469 1297.757812 871.320312 1293.144531 C 869.226562 1288.453125 868.179688 1282.683594 868.179688 1275.832031 C 868.179688 1270.347656 869.226562 1265.046875 871.320312 1259.929688 C 873.480469 1254.808594 876.582031 1250.265625 880.621094 1246.296875 C 884.734375 1242.328125 889.746094 1239.160156 895.660156 1236.777344 C 901.648438 1234.398438 908.503906 1233.207031 916.21875 1233.207031 C 924.878906 1233.207031 932.738281 1234.578125 939.804688 1237.320312 C 946.949219 1240.0625 953.226562 1244.023438 958.632812 1249.21875 Z M 953.550781 1259.171875 " fill-opacity="1" fill-rule="nonzero"/><path fill="#0ca49d" d="M 991.734375 1234.9375 L 1012.730469 1234.9375 L 1012.730469 1389.96875 L 991.734375 1389.96875 Z M 991.734375 1234.9375 " fill-opacity="1" fill-rule="nonzero"/><path fill="#0ca49d" d="M 1134.726562 1332.414062 L 1110.378906 1269.339844 C 1109.660156 1267.464844 1108.902344 1265.300781 1108.109375 1262.851562 C 1107.3125 1260.324219 1106.558594 1257.65625 1105.835938 1254.847656 C 1104.324219 1260.6875 1102.773438 1265.554688 1101.1875 1269.449219 L 1076.839844 1332.414062 Z M 1178.4375 1389.96875 L 1162.210938 1389.96875 C 1160.332031 1389.96875 1158.820312 1389.5 1157.664062 1388.558594 C 1156.507812 1387.621094 1155.644531 1386.433594 1155.066406 1384.992188 L 1140.566406 1347.558594 L 1070.996094 1347.558594 L 1056.496094 1384.992188 C 1056.066406 1386.289062 1055.234375 1387.441406 1054.007812 1388.453125 C 1052.785156 1389.460938 1051.265625 1389.96875 1049.464844 1389.96875 L 1033.234375 1389.96875 L 1095.230469 1234.9375 L 1116.441406 1234.9375 Z M 1178.4375 1389.96875 " fill-opacity="1" fill-rule="nonzero"/></svg>